<?xml version="1.0" encoding="utf-8"?>
<!-- Generator: Adobe Illustrator 27.2.0, SVG Export Plug-In . SVG Version: 6.00 Build 0)  -->
<svg version="1.1" id="Layer_1" xmlns="http://www.w3.org/2000/svg" xmlns:xlink="http://www.w3.org/1999/xlink" x="0px" y="0px"
	 viewBox="0 0 512 512" style="enable-background:new 0 0 512 512;" xml:space="preserve">
<style type="text/css">
	.st0{fill:#231F20;}
	.st1{fill:url(#Path_00000008856519400742496380000001572779297856989071_);}
	.st2{fill:url(#Path_00000136412386839555679560000008186369353204585151_);}
	.st3{fill:url(#Shape_00000065051105978714920780000012968369737035855546_);}
	.st4{opacity:0.3;fill:url(#Path_00000065786097175512668230000005455713964794700959_);enable-background:new    ;}
	.st5{fill:url(#Path_00000170959891343951298230000012127651655391024258_);}
	.st6{fill:url(#Path_00000075859197019533566900000003038515589445374131_);}
	.st7{fill:url(#Path_00000027581423008847811130000016060346836739211151_);}
	.st8{opacity:0.3;fill:url(#Shape_00000156588877640700907140000010627877548559496634_);enable-background:new    ;}
	.st9{opacity:0.3;fill:url(#Path_00000132810394014404960170000000305422671984251526_);enable-background:new    ;}
	.st10{opacity:0.3;fill:url(#Path_00000067203293759266655680000005444691533772914822_);enable-background:new    ;}
	.st11{opacity:0.3;fill:url(#Path_00000095340870165902309320000016303637356896181140_);enable-background:new    ;}
	.st12{opacity:0.3;fill:url(#Path_00000065754735520825975880000011275697984383318656_);enable-background:new    ;}
	.st13{fill:url(#Path_00000127744954355550735750000007423643617886883983_);}
	.st14{opacity:0.6;fill:url(#Path_00000155117808665182795340000018188128023235418287_);enable-background:new    ;}
	.st15{fill:url(#Shape_00000062901714500761522830000017609403529403768218_);}
	.st16{fill:url(#Oval_00000079482577995516780290000010219969803088512434_);}
	.st17{fill:url(#Oval_00000153682768579779271650000003894384758751087508_);}
	.st18{fill:url(#Shape_00000084493919781184374070000008414226205736060344_);}
	.st19{fill:url(#Oval_00000048479959283271514320000011018282604935463599_);}
	.st20{fill:url(#Oval_00000106123540765946734460000012590670465612935326_);}
	.st21{fill:url(#Oval_00000008136575067619505160000007448930096189089420_);}
</style>
<g id="Welcome">
	<g id="Desktop-HD-Copy-18" transform="translate(-601.000000, -140.000000)">
		<g id="logo_gio3_Prancheta-1-Copy" transform="translate(601.000000, 140.000000)">
			<path id="Shape" class="st0" d="M187.12,304.44c-9.51,0-17.22-7.71-17.22-17.22v-45.85c0-9.51,7.71-17.2,17.22-17.22
				c3.86,0.08,7.57,1.52,10.48,4.05c4.33-2,9.02-3.08,13.8-3.16c2.27-0.04,4.51,0.3,6.68,0.99c7.91,2.16,13.37,9.37,13.29,17.58
				c-0.02,9.53-7.73,17.24-17.26,17.26h-1.15c-2-0.06-4.03,0.06-6.01,0.38c-2.49,0.59-2.71,4.27-2.63,6.41c0,0.26,0,0.45,0,0.61
				v18.92C204.32,296.72,196.63,304.42,187.12,304.44z M187.12,236.24c-2.83,0-5.14,2.31-5.14,5.14l0,0v45.85
				c-0.14,2.83,2.04,5.26,4.88,5.4c2.83,0.14,5.26-2.04,5.4-4.88c0-0.18,0-0.34,0-0.53v-19.04c-0.4-9.71,4.17-16.85,11.94-18.65
				c2.87-0.55,5.81-0.77,8.74-0.69h1.21c2.85-0.02,5.16-2.35,5.16-5.2c0-2.71-1.94-5.4-4.15-5.83l-0.61-0.14l-0.42-0.16
				c0,0-5.3-1.94-14.97,3.44l-4.73,2.63l-3.12-4.41C190.4,237.62,188.88,236.57,187.12,236.24z"/>
			<path id="Shape_00000117662758399645308150000002471851872891156871_" class="st0" d="M130.72,304.46
				c-22.07,0.4-40.28-17.16-40.69-39.21c-0.4-22.07,17.16-40.28,39.21-40.69c0.49,0,0.97,0,1.48,0c5.64-0.14,11.21,1.46,15.94,4.53
				c3.22-2.57,7.24-3.95,11.35-3.88c9.51,0,17.2,7.71,17.22,17.22v44.47c-0.02,9.49-7.71,17.2-17.22,17.2
				c-3.82,0-7.49-1.46-10.28-4.05C142.57,303.05,136.69,304.59,130.72,304.46z M130.72,236.61c-15.4,0.34-27.62,13.11-27.27,28.51
				c0.32,14.93,12.36,26.95,27.27,27.27c5.85,0,10.82-1.84,13.37-4.92l6.09-7.43l4.05,8.7c0.47,0.99,1.74,3.28,3.78,3.28
				c2.83,0,5.14-2.31,5.16-5.14v-44.43c0-2.83-2.31-5.14-5.16-5.16c-1.98-0.2-3.88,0.83-4.79,2.61l-3.36,8.11l-6.37-6.07
				C139.34,238.06,135.9,236.61,130.72,236.61z M130.72,282.11c-9.71,0-17.58-7.87-17.58-17.58c0-9.71,7.87-17.58,17.58-17.58
				s17.58,7.87,17.58,17.58C148.3,274.24,140.43,282.11,130.72,282.11z M130.72,258.96c-3.08,0-5.56,2.49-5.56,5.56
				c0,3.08,2.49,5.56,5.56,5.56c3.08,0,5.56-2.49,5.56-5.56c0,0,0,0,0-0.02C136.26,261.43,133.77,258.96,130.72,258.96z"/>
			<path id="Shape_00000127037238496825491010000000354450688577866673_" class="st0" d="M50.26,304.22
				C22.5,304.22,0,281.72,0,253.97s22.5-50.26,50.26-50.26c11.92,0,27.03,1.44,37.61,12.67c6.53,6.9,6.23,17.78-0.65,24.3
				l-0.02,0.02c-0.65,0.61-1.34,1.17-2.06,1.66c3.16,2.16,5.75,5.02,7.59,8.38c5.2,9.87,4.84,21.75-0.99,31.28
				C82.73,296.33,68,304.22,50.26,304.22z M50.26,215.75c-21.1,0-38.2,17.1-38.2,38.2c0,21.1,17.1,38.2,38.2,38.2
				c13.51,0,24.54-5.89,31.26-16.55c3.5-5.81,3.74-13.01,0.63-19.02c-1.66-3.42-5.06-5.69-8.86-5.87h-17.7h-0.67
				c-2.87,0.18-5.04,2.65-4.86,5.52c0.16,2.67,2.35,4.77,5.02,4.88c0.22,0.02,0.42,0.02,0.65,0h0.4h0.4h11.13h10.99l-5.91,9.25
				c-4.79,7.38-12.77,11.45-22.48,11.45c-15.42,0-27.92-12.5-27.92-27.92s12.5-27.92,27.92-27.92h2.23c4.05,0,9.29,0.55,17.58,4.57
				c2.06,1.15,4.33,1.9,6.68,2.19c0.81,0.02,1.58-0.28,2.14-0.85c2.06-1.94,2.16-5.18,0.22-7.24l-0.02-0.02
				C71.64,216.76,59.78,215.75,50.26,215.75z M52.48,238.08h-2.23c-8.76,0.06-15.8,7.2-15.76,15.96c0.04,5.75,3.18,11.01,8.19,13.78
				c-6.64-6.84-6.47-17.76,0.36-24.4c3.22-3.14,7.53-4.88,12.02-4.88h2.19C55.7,238.21,54.08,238.04,52.48,238.08z"/>
			
				<linearGradient id="Path_00000155109335844255710420000006332826839419915164_" gradientUnits="userSpaceOnUse" x1="-669.5815" y1="779.9491" x2="-669.5815" y2="781.8854" gradientTransform="matrix(24.4101 0 0 -33.524 16545.1855 26448.8223)">
				<stop  offset="0" style="stop-color:#EB820D"/>
				<stop  offset="0.96" style="stop-color:#FFE838"/>
			</linearGradient>
			<path id="Path" style="fill:url(#Path_00000155109335844255710420000006332826839419915164_);" d="M216.38,231.23
				c-2.04-0.42-4.15-0.61-6.23-0.59c-3.46,0-9.25,2.02-13.9,6.53c-0.75-4.45-4.61-7.69-9.12-7.65c-6.17,0-11.17,5-11.17,11.17v45.87
				c0.22,6.17,5.38,11.01,11.55,10.78c5.87-0.2,10.58-4.92,10.78-10.78v-19c0-0.1,0-0.2,0-0.3c-0.14-3.24,0.3-10.9,7.28-12.52
				c2.43-0.42,4.92-0.61,7.38-0.55h1.15c6.19,0,11.23-5.04,11.23-11.23C225.36,237.64,221.58,232.28,216.38,231.23z"/>
			
				<linearGradient id="Path_00000088848968906492350230000012306905385204266922_" gradientUnits="userSpaceOnUse" x1="-685.239" y1="783.8609" x2="-685.239" y2="786.0336" gradientTransform="matrix(42.0746 0 0 -43.7134 28878.959 34559.5703)">
				<stop  offset="0" style="stop-color:#00A7FF"/>
				<stop  offset="1" style="stop-color:#F4FAFF"/>
			</linearGradient>
			
				<path id="Path_00000068674818525324144870000016282983662810674305_" style="fill:url(#Path_00000088848968906492350230000012306905385204266922_);" d="
				M73.3,243.97c-6.09,0-17.58,0-18.07,0h-0.16c-6.21,0-11.23,5.04-11.23,11.23c0,6.21,5.04,11.23,11.23,11.23
				c0.49,0,0.95-0.04,1.44-0.1h11.15c-4.65,7.26-12.02,8.8-17.4,8.8c-12.08,0.3-22.11-9.25-22.42-21.32
				c-0.3-12.08,9.25-22.11,21.32-22.42c0.36,0,0.73,0,1.09,0h2.23c3.36,0,7.77,0.47,14.99,3.97c2.87,1.56,6.05,2.49,9.31,2.71
				c2.35,0.02,4.59-0.87,6.29-2.49c4.49-4.25,4.67-11.31,0.42-15.8c-9.06-9.55-22.52-10.82-33.24-10.82
				c-24.42-0.42-44.57,19.02-45,43.44s19.02,44.57,43.46,45c0.51,0,1.03,0,1.54,0c15.6,0,28.51-6.86,36.38-19.34
				c4.69-7.65,5-17.22,0.79-25.15C84.33,247.35,79.05,243.97,73.3,243.97z"/>
			
				<linearGradient id="Shape_00000027579033516103458190000000020772364705014160_" gradientUnits="userSpaceOnUse" x1="-681.0046" y1="779.9623" x2="-681.0046" y2="781.8976" gradientTransform="matrix(35.79 0 0 -33.54 24506.1465 26461.7305)">
				<stop  offset="0" style="stop-color:#EB820D"/>
				<stop  offset="0.96" style="stop-color:#FFE838"/>
			</linearGradient>
			
				<path id="Shape_00000155107629499909916070000011075768165256942487_" style="fill:url(#Shape_00000027579033516103458190000000020772364705014160_);" d="
				M158.01,230.58c-4.43-0.2-8.54,2.31-10.36,6.33c-5.24-5-10.22-7.04-16.93-7.04c-18.73,0-33.93,15.17-33.95,33.91
				c-0.02,18.73,15.17,33.93,33.91,33.95h0.02c7.73,0,14.36-2.71,18.03-7.12c1.98,4.25,5.4,6.76,9.27,6.76
				c6.17,0,11.17-5.02,11.19-11.19v-44.43C169.18,235.58,164.18,230.58,158.01,230.58z M130.72,252.21
				c6.39,0,11.59,5.18,11.59,11.57c0,6.39-5.18,11.59-11.57,11.59s-11.59-5.18-11.59-11.57c0,0,0,0,0-0.02
				C119.15,257.41,124.32,252.23,130.72,252.21L130.72,252.21z"/>
			
				<linearGradient id="Path_00000121238528980979011840000012451681910054403497_" gradientUnits="userSpaceOnUse" x1="-683.8387" y1="785.1688" x2="-683.8387" y2="783.707" gradientTransform="matrix(38.9088 0 0 -41.64 26654.8125 32907.0938)">
				<stop  offset="0" style="stop-color:#F4FAFF"/>
				<stop  offset="0.13" style="stop-color:#F4FAFF;stop-opacity:0"/>
				<stop  offset="0.98" style="stop-color:#F4FAFF"/>
			</linearGradient>
			
				<path id="Path_00000026842803738575834020000007570916641436374657_" style="opacity:0.3;fill:url(#Path_00000121238528980979011840000012451681910054403497_);enable-background:new    ;" d="
				M69.82,243.97c-6.09,0-14.08,0-14.57,0h-0.16c-6.21,0-11.23,5.04-11.23,11.23c0,6.21,5.04,11.23,11.23,11.23
				c0.49,0,0.95-0.04,1.44-0.1h11.15c-4.65,7.26-12.02,8.8-17.4,8.8c-12.08,0.3-22.11-9.25-22.42-21.32
				c-0.3-12.08,9.25-22.11,21.32-22.42c0.36,0,0.73,0,1.09,0h2.23c3.36,0,7.77,0.47,14.99,3.97c2.87,1.56,6.05,2.49,9.31,2.71
				c2.35,0.02,4.59-0.87,6.29-2.49c4.49-4.25,4.67-11.31,0.42-15.8c-9.06-9.55-22.52-10.82-33.24-10.82
				c-24.34,0-41.9,19.83-42.14,44.21c-0.24,22.98,17.74,40.04,42.14,40.04c15.6,0,25.35-6.62,31.48-15.15
				c5.91-8.25,6.39-18.82,2.91-25.15C81.64,247.49,75.99,244.09,69.82,243.97z"/>
			<path id="Shape_00000083796831919790508850000013827886061869321098_" class="st0" d="M245.67,305.96
				c-9.51,0-17.2-7.71-17.22-17.22v-29.38c-9.04-2.93-13.98-12.64-11.05-21.69c1.7-5.24,5.81-9.33,11.05-11.05
				c0.42-9.49,8.48-16.83,17.97-16.41c8.84,0.4,15.94,7.47,16.41,16.31c9.1,2.75,14.24,12.36,11.49,21.45
				c-1.66,5.5-5.99,9.83-11.49,11.49v29.28C262.83,298.23,255.16,305.92,245.67,305.96z M233.8,237.86
				c-2.83-0.14-5.26,2.04-5.4,4.88c-0.14,2.83,2.04,5.26,4.88,5.4c0.18,0,0.34,0,0.53,0h6.76v40.54c-0.14,2.83,2.04,5.26,4.88,5.4
				c2.83,0.14,5.26-2.04,5.4-4.88c0-0.18,0-0.34,0-0.53v-40.52h7.08c2.83-0.14,5.02-2.57,4.88-5.4c-0.14-2.63-2.25-4.75-4.88-4.88
				h-7.08v-10.56c-0.14-2.83-2.57-5.02-5.4-4.88c-2.63,0.14-4.75,2.25-4.88,4.88v10.56L233.8,237.86z"/>
			<path id="Shape_00000020383019960991421670000003555268061343529856_" class="st0" d="M286.16,304.91
				c-9.49,0-17.2-7.71-17.22-17.2V247.9c0-9.51,7.71-17.22,17.22-17.22c9.51,0,17.22,7.71,17.22,17.22v39.82
				C303.36,297.2,295.67,304.89,286.16,304.91z M286.16,242.72c-2.83,0-5.14,2.31-5.14,5.14l0,0v39.82c0,2.83,2.31,5.14,5.14,5.14
				c2.83,0,5.14-2.31,5.14-5.14V247.9c0-2.83-2.31-5.14-5.14-5.14l0,0V242.72z"/>
			<path id="Shape_00000058564007405514477330000007946133728793169045_" class="st0" d="M286.52,237.7
				c-9.39,0-17.01-7.63-17.01-17.01v-0.34c0-9.41,7.63-17.01,17.01-17.01c9.41,0,17.01,7.63,17.01,17.01v0.34
				C303.52,230.07,295.91,237.68,286.52,237.7z M286.52,215c-2.89,0.08-5.22,2.43-5.26,5.32v0.34c0,2.93,2.39,5.32,5.32,5.32
				c2.93,0,5.32-2.39,5.32-5.32v-0.34C291.86,217.37,289.48,215,286.52,215z"/>
			<path id="Shape_00000154418305715034130940000008615643226228774018_" class="st0" d="M340.46,305.25
				c-22.9,0.02-41.5-18.53-41.52-41.43c-0.02-22.9,18.53-41.5,41.43-41.52c11.03,0,21.63,4.37,29.42,12.2
				c0.4,0.42,0.81,0.83,1.21,1.36c6.43,6.98,5.99,17.84-0.99,24.28c-0.81,0.75-1.68,1.4-2.59,1.98c0.97,0.45,1.92,0.97,2.79,1.6
				c7.77,5.46,9.67,16.19,4.23,23.97C366.66,298.72,353.98,305.27,340.46,305.25z M340.46,234.38c-16.25,0-29.42,13.17-29.42,29.42
				c0,16.25,13.17,29.42,29.42,29.42c9.61,0,18.61-4.69,24.12-12.56c1.64-2.33,1.07-5.54-1.25-7.18c-0.87-0.61-1.9-0.93-2.95-0.93
				c-1.68,0-3.26,0.83-4.23,2.21c-6.05,8.66-17.97,10.78-26.63,4.73c-8.66-6.05-10.78-17.97-4.73-26.63
				c6.05-8.66,17.97-10.78,26.62-4.73c0.91,0.65,1.78,1.36,2.57,2.14c0.22,0.2,0.38,0.38,0.59,0.59c0.97,1.05,2.35,1.66,3.78,1.66
				c1.29,0,2.53-0.49,3.48-1.36c2.08-1.92,2.23-5.16,0.32-7.26c-0.3-0.32-0.59-0.63-0.87-0.91
				C355.76,237.46,348.25,234.36,340.46,234.38z M340.46,256.72c-3.9,0-7.06,3.18-7.06,7.08c0,3.9,3.18,7.06,7.08,7.06
				c2.33,0,4.49-1.13,5.81-3.03c1.34-1.9,3.06-3.52,5.04-4.75c-2.14-0.95-4.05-2.33-5.62-4.05l-0.24-0.24
				C344.1,257.45,342.32,256.72,340.46,256.72z"/>
			
				<linearGradient id="Path_00000166676418178351305980000009742878448832807597_" gradientUnits="userSpaceOnUse" x1="-666.4952" y1="783.0136" x2="-666.4952" y2="784.5812" gradientTransform="matrix(22.9473 0 0 -41.4073 15539.7354 32725.0039)">
				<stop  offset="0" style="stop-color:#EB820D"/>
				<stop  offset="0.96" style="stop-color:#FFE838"/>
			</linearGradient>
			
				<path id="Path_00000132809635324956604570000018040093974209517218_" style="fill:url(#Path_00000166676418178351305980000009742878448832807597_);" d="
				M257.89,231.87h-1.05v-4.53c0.22-6.17-4.61-11.35-10.78-11.55c-6.17-0.22-11.35,4.61-11.55,10.78c0,0.26,0,0.53,0,0.77v4.53
				h-0.69c-6.17-0.22-11.35,4.61-11.55,10.78c-0.22,6.17,4.61,11.35,10.78,11.55c0.26,0,0.53,0,0.77,0h0.69v34.56
				c0.22,6.17,5.38,11.01,11.55,10.78c5.87-0.2,10.58-4.92,10.78-10.78v-34.54h1.05c6.17-0.22,11.01-5.38,10.78-11.55
				C268.48,236.79,263.76,232.1,257.89,231.87z"/>
			
				<linearGradient id="Path_00000142881799310755215190000001240821424133660568_" gradientUnits="userSpaceOnUse" x1="-625.8683" y1="778.7396" x2="-625.8683" y2="781.8312" gradientTransform="matrix(11.05 0 0 -30.72 7202.0244 24217.2402)">
				<stop  offset="0" style="stop-color:#00A7FF"/>
				<stop  offset="1" style="stop-color:#F4FAFF"/>
			</linearGradient>
			
				<path id="Path_00000158005698320987407940000004953883570463188387_" style="fill:url(#Path_00000142881799310755215190000001240821424133660568_);" d="
				M286.16,236.04c-6.17,0-11.17,5.02-11.19,11.19v39.8c0,6.17,5.02,11.17,11.19,11.17c6.17,0,11.17-5,11.17-11.17v-39.82
				C297.35,241.04,292.35,236.04,286.16,236.04z"/>
			
				<linearGradient id="Path_00000003073402603812025720000011210681818009773230_" gradientUnits="userSpaceOnUse" x1="-675.9417" y1="780.8724" x2="-675.9417" y2="783.5829" gradientTransform="matrix(32.8759 0 0 -35.04 22560.4023 27656.127)">
				<stop  offset="0" style="stop-color:#00A7FF"/>
				<stop  offset="1" style="stop-color:#F4FAFF"/>
			</linearGradient>
			
				<path id="Path_00000105396656960356950740000007170701606557818791_" style="fill:url(#Path_00000003073402603812025720000011210681818009773230_);" d="
				M366.76,267.84c-5.04-3.54-12-2.33-15.56,2.71c-4.15,5.93-12.32,7.36-18.25,3.22c-3.5-2.45-5.58-6.45-5.58-10.72
				c0.12-7.18,5.91-12.97,13.09-13.09c5.34-0.22,9.47,4.05,9.65,4.25c4.05,4.67,11.11,5.18,15.76,1.13
				c4.67-4.05,5.18-11.11,1.13-15.76c-0.14-0.16-0.28-0.32-0.45-0.47c-0.34-0.38-0.71-0.75-1.05-1.09
				c-13.84-13.84-36.28-13.84-50.13,0c-13.86,13.84-13.84,36.28,0,50.13c13.84,13.84,36.28,13.84,50.13,0
				c1.46-1.46,2.79-3.05,3.99-4.75C373.01,278.3,371.78,271.39,366.76,267.84z"/>
			
				<linearGradient id="Shape_00000126283676078854715280000003613913611826196123_" gradientUnits="userSpaceOnUse" x1="-680.1332" y1="780.0817" x2="-680.1332" y2="779.1169" gradientTransform="matrix(34.4272 0 0 -31.12 23549.4707 24532.9902)">
				<stop  offset="0.18" style="stop-color:#F4FAFF;stop-opacity:0.18"/>
				<stop  offset="0.98" style="stop-color:#F9F27A"/>
			</linearGradient>
			
				<path id="Shape_00000078753417572993932920000005335040576928558239_" style="opacity:0.3;fill:url(#Shape_00000126283676078854715280000003613913611826196123_);enable-background:new    ;" d="
				M158.01,230.58c-4.43-0.2-8.54,2.31-10.36,6.33c-5.24-5-10.22-7.04-16.93-7.04c-18.71,0-32.31,14.57-31.1,33.22
				c1.21,18.65,15.13,29.74,31.1,29.74c6.96-0.08,13.56-3.2,18.03-8.52c1.98,4.25,5.4,7.47,9.27,7.47c6.17,0,11.19-5.71,11.19-11.88
				v-38.16C169.18,235.58,164.18,230.58,158.01,230.58z M130.72,252.21c6.39,0,11.59,5.18,11.59,11.57
				c0,6.39-5.18,11.59-11.57,11.59s-11.59-5.18-11.59-11.57c0,0,0,0,0-0.02C119.15,257.41,124.32,252.23,130.72,252.21
				L130.72,252.21z"/>
			
				<linearGradient id="Path_00000170996638954451553970000002268942975449521575_" gradientUnits="userSpaceOnUse" x1="-669.397" y1="780.3543" x2="-669.397" y2="779.4507" gradientTransform="matrix(24.2719 0 0 -31.64 16448.0586 24947.2598)">
				<stop  offset="0.18" style="stop-color:#F4FAFF;stop-opacity:0.18"/>
				<stop  offset="0.98" style="stop-color:#F9F27A"/>
			</linearGradient>
			
				<path id="Path_00000060742624008506403840000010817230374618993059_" style="opacity:0.3;fill:url(#Path_00000170996638954451553970000002268942975449521575_);enable-background:new    ;" d="
				M216.38,231.95c-2.04-0.42-4.15-0.61-6.23-0.59c-5.04,0.2-9.89,1.98-13.9,5.08c-1.92-4.15-5.48-6.92-9.12-6.92
				c-6.17,0-11.17,5-11.17,11.17v41.68c0,6.17,5,11.17,11.17,11.17c6.17,0,9.77-5.02,9.77-11.17V267.5c0-0.1,0-0.2,0-0.3
				c-0.14-3.24,1.7-10.9,8.68-12.52c2.43-0.42,4.92-0.61,7.38-0.55h1.15c6.21-0.16,11.11-5.32,10.95-11.53
				C224.92,237.48,221.36,233.11,216.38,231.95z"/>
			
				<linearGradient id="Path_00000039106437438103717890000018065534015657323948_" gradientUnits="userSpaceOnUse" x1="-666.5107" y1="783.4774" x2="-666.5107" y2="782.7537" gradientTransform="matrix(22.9573 0 0 -39.5037 15546.7725 31207.7969)">
				<stop  offset="0.18" style="stop-color:#F4FAFF;stop-opacity:0.18"/>
				<stop  offset="0.98" style="stop-color:#F9F27A"/>
			</linearGradient>
			
				<path id="Path_00000043438641339398855390000001958678775664076938_" style="opacity:0.3;fill:url(#Path_00000039106437438103717890000018065534015657323948_);enable-background:new    ;" d="
				M257.89,231.87h-1.05v-4.53c0.22-6.17-4.61-11.35-10.78-11.55c-6.17-0.22-11.35,4.61-11.55,10.78c0,0.26,0,0.53,0,0.77v4.53
				h-0.69c-6.17-0.22-11.35,4.61-11.55,10.78c-0.22,6.17,4.61,11.35,10.78,11.55c0.26,0,0.53,0,0.77,0h0.69v28.93
				c0,6.17,5.02,12.56,11.19,12.56c6.17,0,11.17-6.41,11.17-12.56v-28.93h1.05c6.17-0.22,11.01-5.38,10.78-11.55
				C268.48,236.79,263.76,232.1,257.89,231.87z"/>
			
				<linearGradient id="Path_00000023264583192523360360000009930792669745251469_" gradientUnits="userSpaceOnUse" x1="-625.8683" y1="779.3702" x2="-625.8683" y2="777.541" gradientTransform="matrix(11.05 0 0 -28.65 7202.0244 22567.4512)">
				<stop  offset="0" style="stop-color:#F4FAFF"/>
				<stop  offset="0.11" style="stop-color:#F4FAFF;stop-opacity:0.12"/>
				<stop  offset="0.98" style="stop-color:#F4FAFF"/>
			</linearGradient>
			
				<path id="Path_00000144315044192085142830000013033758731160154270_" style="opacity:0.3;fill:url(#Path_00000023264583192523360360000009930792669745251469_);enable-background:new    ;" d="
				M286.16,236.04c-6.17,0-11.17,5.02-11.19,11.19v35.61c0,6.17,5.02,11.17,11.19,11.17c6.17,0,11.17-5,11.17-11.17v-35.61
				C297.35,241.04,292.35,236.04,286.16,236.04z"/>
			
				<linearGradient id="Path_00000098927102115690585080000011000363098308423081_" gradientUnits="userSpaceOnUse" x1="-674.2958" y1="781.5075" x2="-674.2958" y2="780.0458" gradientTransform="matrix(30.9605 0 0 -32.9603 21214.9473 25998.6348)">
				<stop  offset="0" style="stop-color:#F4FAFF"/>
				<stop  offset="0.13" style="stop-color:#F4FAFF;stop-opacity:0.13"/>
				<stop  offset="0.98" style="stop-color:#F4FAFF"/>
			</linearGradient>
			
				<path id="Path_00000022520497548602663760000017904714234760440960_" style="opacity:0.3;fill:url(#Path_00000098927102115690585080000011000363098308423081_);enable-background:new    ;" d="
				M364.66,266.45c-1.9-1.36-2-0.63-4.29-0.63c-3.64,0-7.08,1.76-9.17,4.75c-4.13,5.93-12.3,7.4-18.23,3.26
				c-5.93-4.13-7.4-12.3-3.26-18.23c4.13-5.93,12.3-7.4,18.23-3.26c0.63,0.45,1.23,0.93,1.78,1.48c0.14,0.12,0.26,0.26,0.38,0.4
				c4.05,4.67,11.11,5.18,15.76,1.13c4.67-4.05,5.18-11.11,1.13-15.76c-0.14-0.16-0.28-0.32-0.45-0.47
				c-0.34-0.38-0.71-0.75-1.05-1.09c-6.64-6.68-15.66-10.42-25.07-10.38c-19.52,0-33.34,15.21-33.34,34.74s15.7,31.95,33.34,31.95
				c11.55,0,20.27-3.56,26.95-13.05c3.4-4.61,2.39-11.11-2.23-14.49C365.02,266.69,364.84,266.57,364.66,266.45z"/>
			
				<linearGradient id="Path_00000071557837884389109420000010486554990400180131_" gradientUnits="userSpaceOnUse" x1="-625.7827" y1="749.3539" x2="-625.7827" y2="753.5328" gradientTransform="matrix(11.04 0 0 -11.0336 7195.1675 8513.5889)">
				<stop  offset="0" style="stop-color:#00A7FF"/>
				<stop  offset="1" style="stop-color:#F4FAFF"/>
			</linearGradient>
			
				<path id="Path_00000093898567090899177330000012203128605158002093_" style="fill:url(#Path_00000071557837884389109420000010486554990400180131_);" d="
				M286.52,208.46c-6.17,0-11.19,5-11.19,11.19l0,0V220c0.22,6.17,5.38,11.01,11.55,10.78c5.87-0.2,10.58-4.92,10.78-10.78v-0.34
				C297.69,213.46,292.69,208.46,286.52,208.46L286.52,208.46z"/>
			
				<linearGradient id="Path_00000181071825789468213500000014759720612392604077_" gradientUnits="userSpaceOnUse" x1="-613.1483" y1="745.2849" x2="-613.1483" y2="743.7677" gradientTransform="matrix(9.48 0 0 -9.4801 6099.3271 7275.5659)">
				<stop  offset="0" style="stop-color:#F4FAFF"/>
				<stop  offset="0.14" style="stop-color:#F4FAFF;stop-opacity:0.15"/>
				<stop  offset="0.7" style="stop-color:#F4FAFF;stop-opacity:0.5"/>
			</linearGradient>
			
				<path id="Path_00000175307985611441883550000008748235493896085163_" style="opacity:0.6;fill:url(#Path_00000181071825789468213500000014759720612392604077_);enable-background:new    ;" d="
				M296.27,218.42c0,5.3-4.29,9.59-9.59,9.59c-5.3,0-9.59-4.29-9.59-9.59c0-5.3,4.29-9.59,9.59-9.59
				C291.96,208.81,296.27,213.1,296.27,218.42L296.27,218.42z"/>
			<path id="Path_00000110447495349890206150000007915386668611597741_" class="st0" d="M387.72,225.16
				c-6.01,4.57-7.16,13.15-2.59,19.16l0.26,0.32c4.57,6.01,13.15,7.16,19.16,2.59c6.01-4.57,7.16-13.15,2.59-19.16l-0.24-0.32
				C402.31,221.76,393.73,220.6,387.72,225.16z"/>
			<path id="Shape_00000161617472896028245540000016264052688156071591_" class="st0" d="M511.66,230.7
				c-0.99-4.45-4.05-7.49-9.27-9.06h-0.1c-10.06-1.52-12.16,4.51-14.45,10.9c-0.75,2.27-1.64,4.47-2.71,6.6
				c-8.7-7.73-20.37-11.27-31.91-9.65c-5.89,0.97-13.84,4.05-18.19,12.91c-3.74,7.14-3.1,15.8,1.68,22.3
				c-2.06-0.53-4.23-0.53-6.29,0c-3.34,0.77-6.15,2.99-7.69,6.05c-0.42,0.95-0.79,1.98-1.17,3.08c-0.87,2.53-1.8,5.14-3.42,6.17
				l-0.1,0.1c-1.13,1.07-2.19,1.48-3.1,1.17c-1.36-0.42-5.52-1.58-6.01-13.51c-0.06-1.86-0.45-5.6-0.59-7.34
				c-0.3-3.76-0.55-7-2.43-9.06c-3.95-5.38-11.51-6.56-16.89-2.61c-3.22,2.35-5.06,6.13-4.94,10.1c-0.18,6.7,0.47,13.39,1.96,19.93
				c0.24,1.09,0.26,2.1-2.35,1.98c-0.73-0.04-1.46,0-2.16,0.1c-2.73,0.45-5.28,1.74-7.26,3.68c-4.96,4.9-5.48,12.73-1.21,18.23l0,0
				c4.61,6.09,13.29,7.3,19.4,2.71c2.02-1.56,3.56-3.68,4.43-6.09c4.84,4.49,12.48,7.02,18.92,7.2c6.62,0.16,13.05-2.27,17.91-6.76
				c6.64,5.79,15.15,8.92,23.95,8.86h0.1c11.75-0.26,22.13-4.76,29.23-12.67c7.45-8.3,10.97-20.01,9.91-33
				C502.46,257.85,514.13,241.81,511.66,230.7z M460.92,284.19c-5.4,1.05-10.36-0.67-12.97-4.47l0,0c-1.15-1.76-2.02-3.68-2.59-5.71
				c-0.3-0.93-0.63-1.84-0.95-2.71c7.34,4.25,17.58,5.83,27.29,4.17C469.92,280.11,465.8,283.44,460.92,284.19z"/>
			
				<linearGradient id="Shape_00000109011361224098067260000006588121798109158334_" gradientUnits="userSpaceOnUse" x1="-686.2418" y1="780.8137" x2="-686.2418" y2="782.1431" gradientTransform="matrix(57.1189 0 0 -36.8034 39645.4023 29061.6113)">
				<stop  offset="0" style="stop-color:#EB820D"/>
				<stop  offset="0.7063" style="stop-color:#EF9415"/>
			</linearGradient>
			
				<path id="Shape_00000052799718296764229760000000589440704231283076_" style="fill:url(#Shape_00000109011361224098067260000006588121798109158334_);" d="
				M501.87,227.99c-2.95-0.91-6.09,0.75-7.02,3.68c-1.86,6.31-5.26,12.06-9.91,16.69l0,0c-3.16-4.25-7.34-7.65-12.16-9.85
				c-12.04-5.56-25.57-3.42-30.83,4.88c-3.56,5.6-3.8,11.63-0.71,16.49c3.72,5.81,11.67,9.17,21.04,9.17c1.84,0,3.68-0.12,5.52-0.38
				c4.03-0.55,7.97-1.64,11.71-3.28l0,0c0.2,4.13-0.36,8.25-1.7,12.16c-1.34,4.07-4.09,7.55-7.77,9.77
				c-3.82,2.43-8.3,3.64-12.81,3.52c-3.99-0.02-7.87-1.36-11.05-3.78c-3.72-3.12-6.27-7.4-7.22-12.16c-0.73-3.03-3.78-4.9-6.8-4.15
				c-1.94,0.47-3.5,1.94-4.09,3.86l-0.14,0.38c0,0.18-0.1,0.28-0.14,0.42c-2.71,9.73-10.82,12-13.82,12
				c-5.56,0-12.16-5.26-12.16-29.23l0,0c-0.12-3.1-2.73-5.52-5.83-5.4c-3.18,0.08-5.71,2.65-5.75,5.81l0,0
				c0,37.93,17.66,40.54,23.29,41.23c4.92,0.59,12.73-1.07,16.67-5.12c1.32-1.38,2.49-2.87,3.48-4.47l0,0
				c1.56,2.14,3.42,4.09,5.5,5.73c5.04,3.9,11.19,6.11,17.58,6.25h0.97c6.45-0.02,12.79-1.86,18.23-5.32
				c5.91-3.68,10.34-9.33,12.48-15.94c2.63-8.5,2.79-15.78,1.36-21.89l0,0c7.51-6.25,12.99-14.63,15.74-24.02
				c0.93-2.97-0.71-6.13-3.66-7.08C501.89,227.99,501.87,227.99,501.87,227.99z M475.55,254.78c-2.95,1.36-6.11,2.27-9.35,2.71
				c-7.59,1.01-13.88-1.07-15.56-3.68c-0.26-0.45-1.03-1.62,0.73-4.37c1.07-1.68,3.97-2.71,7.55-2.71c3.12,0.02,6.19,0.73,9.02,2.04
				C470.94,250.12,473.55,252.19,475.55,254.78L475.55,254.78z"/>
			
				<linearGradient id="Oval_00000079443644354265626290000010403841762961559198_" gradientUnits="userSpaceOnUse" x1="-588.193" y1="724.7301" x2="-588.193" y2="730.9708" gradientTransform="matrix(7.84 0 0 -7.84 4995.23 6006.8901)">
				<stop  offset="0" style="stop-color:#EB820D"/>
				<stop  offset="0.7063" style="stop-color:#EF9415"/>
			</linearGradient>
			
				<circle id="Oval" style="fill:url(#Oval_00000079443644354265626290000010403841762961559198_);" cx="383.8" cy="294.57" r="7.93"/>
			
				<linearGradient id="Oval_00000016767097571910977490000014001685674380753794_" gradientUnits="userSpaceOnUse" x1="-587.4021" y1="721.0579" x2="-587.4021" y2="727.2985" gradientTransform="matrix(7.84 0 0 -7.84 5001.29 5978.1001)">
				<stop  offset="0" style="stop-color:#EB820D"/>
				<stop  offset="0.7063" style="stop-color:#EF9415"/>
			</linearGradient>
			
				<circle id="Oval_00000108302213747820062660000017744356215224482953_" style="fill:url(#Oval_00000016767097571910977490000014001685674380753794_);" cx="396.06" cy="236.32" r="7.93"/>
			
				<linearGradient id="Shape_00000040564794153907900730000007490713950510117551_" gradientUnits="userSpaceOnUse" x1="-686.2418" y1="780.8262" x2="-686.2418" y2="782.1556" gradientTransform="matrix(57.1189 0 0 -36.8034 39645.4023 29061.1641)">
				<stop  offset="0" style="stop-color:#EB820D"/>
				<stop  offset="1" style="stop-color:#FCD731"/>
			</linearGradient>
			
				<path id="Shape_00000033356840361499662940000015576142517661915320_" style="fill:url(#Shape_00000040564794153907900730000007490713950510117551_);" d="
				M501.87,227.08c-2.95-0.91-6.09,0.75-7.02,3.68c-1.86,6.31-5.26,12.06-9.91,16.69l0,0c-3.16-4.25-7.34-7.65-12.16-9.85
				c-12.04-5.56-25.57-3.42-30.83,4.88c-3.56,5.6-3.8,11.63-0.71,16.49c3.72,5.81,11.67,9.17,21.04,9.17c1.84,0,3.68-0.12,5.52-0.38
				c4.03-0.55,7.97-1.64,11.71-3.28l0,0c0.2,4.13-0.36,8.25-1.7,12.16c-1.34,4.07-4.09,7.55-7.77,9.77
				c-3.82,2.43-8.3,3.64-12.81,3.52c-3.99-0.02-7.87-1.36-11.05-3.78c-3.72-3.12-6.27-7.4-7.22-12.16c-0.73-3.03-3.78-4.9-6.8-4.15
				c-1.94,0.47-3.5,1.94-4.09,3.86l-0.14,0.38c0,0.18-0.1,0.28-0.14,0.42c-2.71,9.73-10.82,12-13.82,12
				c-5.56,0-12.16-5.26-12.16-29.23l0,0c-0.12-3.1-2.73-5.52-5.83-5.4c-3.18,0.08-5.71,2.65-5.75,5.81l0,0
				c0,37.93,17.66,40.54,23.29,41.23c4.92,0.59,12.73-1.07,16.67-5.12c1.32-1.38,2.49-2.87,3.48-4.47l0,0
				c1.56,2.14,3.42,4.09,5.5,5.73c5.04,3.9,11.19,6.11,17.58,6.25h0.97c6.45-0.02,12.79-1.86,18.23-5.32
				c5.91-3.68,10.34-9.33,12.48-15.94c2.63-8.5,2.79-15.78,1.36-21.89l0,0c7.51-6.25,12.99-14.63,15.74-24.02
				c0.93-2.97-0.71-6.13-3.66-7.08C501.89,227.08,501.87,227.08,501.87,227.08z M475.55,253.86c-2.95,1.36-6.11,2.27-9.35,2.71
				c-7.59,1.01-13.88-1.07-15.56-3.68c-0.26-0.45-1.03-1.62,0.73-4.37c1.07-1.68,3.97-2.71,7.55-2.71c3.12,0.02,6.19,0.73,9.02,2.04
				C470.94,249.21,473.55,251.28,475.55,253.86L475.55,253.86z"/>
			
				<linearGradient id="Oval_00000111904352756657068570000005300586169945769354_" gradientUnits="userSpaceOnUse" x1="-588.1799" y1="724.7885" x2="-588.1799" y2="731.0291" gradientTransform="matrix(7.84 0 0 -7.84 4995.3301 6006.4399)">
				<stop  offset="0" style="stop-color:#EB820D"/>
				<stop  offset="0.96" style="stop-color:#FFE838"/>
			</linearGradient>
			
				<circle id="Oval_00000126318540267981929620000014772055941591430819_" style="fill:url(#Oval_00000111904352756657068570000005300586169945769354_);" cx="384" cy="293.66" r="7.93"/>
			
				<linearGradient id="Oval_00000148629010952639919590000001543724168327500169_" gradientUnits="userSpaceOnUse" x1="-587.4021" y1="721.0579" x2="-587.4021" y2="727.2985" gradientTransform="matrix(7.84 0 0 -7.84 5001.29 5978.1001)">
				<stop  offset="0" style="stop-color:#EB820D"/>
				<stop  offset="0.7063" style="stop-color:#EF9415"/>
			</linearGradient>
			
				<circle id="Oval_00000012445396206288556890000005409727846926600627_" style="fill:url(#Oval_00000148629010952639919590000001543724168327500169_);" cx="396.06" cy="236.32" r="7.93"/>
			
				<linearGradient id="Oval_00000083073673465213673280000007148115505494100121_" gradientUnits="userSpaceOnUse" x1="-587.4021" y1="721.1011" x2="-587.4021" y2="727.3417" gradientTransform="matrix(7.84 0 0 -7.84 5001.29 5977.77)">
				<stop  offset="0" style="stop-color:#EB820D"/>
				<stop  offset="1" style="stop-color:#FCD731"/>
			</linearGradient>
			
				<circle id="Oval_00000015337609515818370660000010634256910397138308_" style="fill:url(#Oval_00000083073673465213673280000007148115505494100121_);" cx="396.06" cy="235.66" r="7.93"/>
		</g>
	</g>
</g>
</svg>
